<svg width="138" height="29" viewBox="0 0 138 29" fill="none" xmlns="http://www.w3.org/2000/svg">

<path d="M59.0448 15.6142C59.6289 15.6142 60.0362 15.5688 60.2668 15.478C60.5128 15.3872 60.6357 15.1527 60.6357 14.7745C60.6357 14.3962 60.2284 13.1102 59.4137 10.9163H52.381C51.72 12.8378 51.3895 14.0482 51.3895 14.5475C51.3895 15.0317 51.5125 15.3343 51.7584 15.4553C52.0198 15.5612 52.4809 15.6142 53.1419 15.6142L53.188 15.8865H48L48.0461 15.6142C48.4919 15.6142 48.8378 15.5764 49.0837 15.5007C49.345 15.4251 49.6217 15.2284 49.9138 14.9106C50.2212 14.5778 50.5133 14.1012 50.79 13.4809C51.0667 12.8605 51.3972 11.9905 51.7815 10.8709L53.8337 5.0383C54.5561 2.98062 54.9174 1.73239 54.9174 1.29362C54.9174 0.854847 54.8098 0.574941 54.5946 0.453902C54.3794 0.317731 53.9643 0.249646 53.3494 0.249646L53.3033 0H57.1079L61.1891 10.8709C61.8809 12.6714 62.342 13.8137 62.5726 14.2979C62.8186 14.782 63.0491 15.0922 63.2644 15.2284C63.6487 15.4856 64.1329 15.6142 64.717 15.6142L64.7631 15.8865H58.9986L59.0448 15.6142ZM55.8166 1.22553L52.5655 10.3716H59.2292L55.8166 1.22553Z" fill="#AA8453"/>
<path d="M72.9781 0C75.622 0 77.605 0.226951 78.927 0.680852C79.5265 0.892672 80.1644 1.19527 80.8408 1.58865C81.5172 1.98203 82.0629 2.45106 82.4779 2.99574C82.9083 3.54043 83.2619 4.23641 83.5386 5.08369C83.8307 5.93097 83.9767 6.88416 83.9767 7.94326C83.9767 8.98724 83.8307 9.93286 83.5386 10.7801C83.2619 11.6123 82.9083 12.3007 82.4779 12.8454C82.0629 13.3901 81.5402 13.8667 80.91 14.2752C80.2951 14.6686 79.711 14.9636 79.1576 15.1603C78.6042 15.357 77.9893 15.5158 77.3129 15.6369C76.406 15.8033 75.476 15.8865 74.5229 15.8865H68.3203L68.3665 15.6142C69.1351 15.6142 69.6961 15.4704 70.0497 15.183C70.434 14.8652 70.6261 13.3901 70.6261 10.7574V5.12908C70.6261 3.51017 70.5723 2.40567 70.4647 1.8156C70.3725 1.2104 70.2342 0.832152 70.0497 0.680852C69.6961 0.393381 69.1351 0.249646 68.3665 0.249646L68.3203 0H72.9781ZM73.0933 15.3418C73.2778 15.357 73.6544 15.3645 74.2232 15.3645C74.8073 15.3645 75.4376 15.304 76.1139 15.183C76.8057 15.0619 77.5128 14.835 78.2353 14.5021C78.9731 14.1541 79.6034 13.7154 80.126 13.1858C80.664 12.6563 81.1021 11.9452 81.4403 11.0525C81.7939 10.1447 81.9706 9.11584 81.9706 7.96596C81.9706 6.80095 81.8016 5.7721 81.4634 4.87943C81.1252 3.98676 80.6871 3.27565 80.1491 2.7461C79.6111 2.20142 78.9808 1.75508 78.2583 1.40709C76.9824 0.817022 75.5759 0.521986 74.0387 0.521986C73.347 0.521986 72.7475 0.567376 72.2402 0.658157V11.0298C72.2402 12.6638 72.2863 13.7456 72.3785 14.2752C72.4708 14.8047 72.709 15.1603 73.0933 15.3418Z" fill="#AA8453"/>
<path d="M93.077 5.12908V10.7574C93.077 12.3764 93.1231 13.4809 93.2154 14.0709C93.323 14.661 93.469 15.0317 93.6535 15.183C94.007 15.4704 94.5681 15.6142 95.3367 15.6142L95.3828 15.8865H89.1572L89.2033 15.6142C89.5876 15.6142 89.8873 15.5991 90.1025 15.5688C90.3177 15.5385 90.5176 15.4553 90.702 15.3191C90.9019 15.183 91.0402 15.0317 91.1171 14.8652C91.2093 14.6837 91.2862 14.3887 91.3477 13.9801C91.4245 13.4506 91.463 12.3764 91.463 10.7574V5.12908C91.463 3.55556 91.4168 2.45863 91.3246 1.8383C91.2324 1.21797 91.094 0.832152 90.9096 0.680852C90.5406 0.393381 89.9719 0.249646 89.2033 0.249646L89.1572 0H95.3828L95.3367 0.249646C94.5681 0.249646 94.007 0.393381 93.6535 0.680852C93.2692 0.998582 93.077 2.48132 93.077 5.12908Z" fill="#AA8453"/>
<path d="M115.377 5.10638V16H114.662L103.802 2.49645V10.7121C103.802 12.2251 103.871 13.3144 104.009 13.9801C104.148 14.6459 104.378 15.0846 104.701 15.2965C105.024 15.5083 105.554 15.6142 106.292 15.6142L106.338 15.8865H100.666L100.712 15.6142C101.45 15.6142 101.98 15.5083 102.303 15.2965C102.626 15.0846 102.856 14.6459 102.995 13.9801C103.148 13.3144 103.225 12.2251 103.225 10.7121V5.10638C103.225 3.59338 103.148 2.51158 102.995 1.86099C102.856 1.19527 102.626 0.764066 102.303 0.567377C101.995 0.355556 101.465 0.249646 100.712 0.249646L100.666 0H103.802L114.8 13.5035V5.10638C114.8 3.60851 114.723 2.52671 114.57 1.86099C114.431 1.19527 114.201 0.764066 113.878 0.567377C113.555 0.355556 113.017 0.249646 112.264 0.249646L112.218 0H117.936L117.89 0.249646C117.137 0.249646 116.599 0.355556 116.276 0.567377C115.953 0.764066 115.723 1.19527 115.584 1.86099C115.446 2.52671 115.377 3.60851 115.377 5.10638Z" fill="#AA8453"/>
<path d="M132.282 15.6142C132.866 15.6142 133.273 15.5688 133.504 15.478C133.75 15.3872 133.873 15.1527 133.873 14.7745C133.873 14.3962 133.465 13.1102 132.651 10.9163H125.618C124.957 12.8378 124.626 14.0482 124.626 14.5475C124.626 15.0317 124.749 15.3343 124.995 15.4553C125.257 15.5612 125.718 15.6142 126.379 15.6142L126.425 15.8865H121.237L121.283 15.6142C121.729 15.6142 122.075 15.5764 122.321 15.5007C122.582 15.4251 122.859 15.2284 123.151 14.9106C123.458 14.5778 123.75 14.1012 124.027 13.4809C124.304 12.8605 124.634 11.9905 125.018 10.8709L127.071 5.0383C127.793 2.98062 128.154 1.73239 128.154 1.29362C128.154 0.854847 128.047 0.574941 127.831 0.453902C127.616 0.317731 127.201 0.249646 126.586 0.249646L126.54 0H130.345L134.426 10.8709C135.118 12.6714 135.579 13.8137 135.809 14.2979C136.055 14.782 136.286 15.0922 136.501 15.2284C136.886 15.4856 137.37 15.6142 137.954 15.6142L138 15.8865H132.236L132.282 15.6142ZM129.054 1.22553L125.802 10.3716H132.466L129.054 1.22553Z" fill="#AA8453"/>
<path d="M4.35209 24.9834C4.28544 24.9831 4.21948 24.9696 4.15806 24.9437C4.09664 24.9178 4.04094 24.88 3.99414 24.8326C-1.491 19.3507 0.242502 8.96867 0.320122 8.52908L0.380499 8.17568L0.734131 8.11535C1.17398 8.03777 11.5621 6.3139 17.0429 11.7872C17.1382 11.8828 17.1917 12.0122 17.1917 12.1471C17.1917 12.282 17.1382 12.4114 17.0429 12.5069C16.9473 12.6021 16.8178 12.6556 16.6829 12.6556C16.5479 12.6556 16.4184 12.6021 16.3228 12.5069C11.7604 7.95589 3.13603 8.81783 1.26884 9.06348C1.01873 10.9296 0.151973 19.5489 4.7143 24.1086C4.80957 24.2041 4.86306 24.3335 4.86306 24.4684C4.86306 24.6033 4.80957 24.7327 4.7143 24.8283C4.66783 24.8777 4.61165 24.9169 4.54933 24.9436C4.48701 24.9703 4.41989 24.9839 4.35209 24.9834Z" fill="#AA8453"/>
<path d="M16.0471 28.8227C12.4291 28.8227 7.31048 28.1461 3.99007 24.8363C3.8948 24.7407 3.84131 24.6113 3.84131 24.4764C3.84131 24.3415 3.8948 24.2121 3.99007 24.1165C4.08568 24.0213 4.2152 23.9679 4.35017 23.9679C4.48515 23.9679 4.61461 24.0213 4.71023 24.1165C9.27255 28.6676 17.897 27.8099 19.7642 27.56C20.0143 25.6939 20.8811 17.0702 16.3187 12.5149C16.2235 12.4193 16.1699 12.2899 16.1699 12.155C16.1699 12.0201 16.2235 11.8907 16.3187 11.7952C16.4144 11.6999 16.5438 11.6465 16.6788 11.6465C16.8138 11.6465 16.9432 11.6999 17.0388 11.7952C22.5197 17.2771 20.7905 27.6591 20.7129 28.0987L20.6525 28.4521L20.2989 28.5124C18.8916 28.7238 17.4702 28.8275 16.0471 28.8227Z" fill="#AA8453"/>
<path d="M36.3959 24.9837C36.2622 24.9826 36.134 24.9301 36.0379 24.8372C35.9427 24.7416 35.8892 24.6122 35.8892 24.4773C35.8892 24.3424 35.9427 24.213 36.0379 24.1175C40.5917 19.5578 39.7292 10.9384 39.4834 9.07235C37.6162 8.82239 28.9875 7.96045 24.4295 12.5158C24.3338 12.611 24.2044 12.6645 24.0694 12.6645C23.9344 12.6645 23.8049 12.611 23.7093 12.5158C23.614 12.4202 23.5605 12.2908 23.5605 12.1559C23.5605 12.021 23.614 11.8916 23.7093 11.7961C29.1944 6.32277 39.5826 8.05096 40.0225 8.12422L40.376 8.18456L40.4364 8.53795C40.514 8.97754 42.2389 19.3553 36.7624 24.8372C36.6633 24.9307 36.5322 24.9831 36.3959 24.9837Z" fill="#AA8453"/>
<path d="M24.697 28.8226C23.2723 28.8269 21.8494 28.7217 20.4409 28.508L20.0873 28.4477L20.0269 28.0943C19.9493 27.6547 18.2201 17.2727 23.7009 11.7908C23.7965 11.6956 23.926 11.6421 24.061 11.6421C24.196 11.6421 24.3254 11.6956 24.421 11.7908C24.5163 11.8863 24.5698 12.0157 24.5698 12.1506C24.5698 12.2855 24.5163 12.4149 24.421 12.5105C19.8587 17.0701 20.7255 25.6895 20.9756 27.5556C22.8428 27.8056 31.4715 28.6675 36.0295 24.1122C36.1252 24.0169 36.2546 23.9635 36.3896 23.9635C36.5246 23.9635 36.6541 24.0169 36.7497 24.1122C36.8449 24.2077 36.8984 24.3371 36.8984 24.472C36.8984 24.6069 36.8449 24.7363 36.7497 24.8319C33.4336 28.1503 28.315 28.8226 24.697 28.8226Z" fill="#AA8453"/>
<path d="M20.2208 28.6594L19.9276 28.4525C19.5611 28.194 10.9927 22.0742 10.9927 14.3297C10.9927 6.5852 19.5654 0.465446 19.9276 0.206865L20.2208 0L20.5141 0.206865C20.8806 0.465446 29.449 6.57658 29.449 14.3297C29.449 22.0742 20.8763 28.194 20.5141 28.4525L20.2208 28.6594ZM20.2208 1.25412C18.7245 2.39618 12.0104 7.88672 12.0104 14.3254C12.0104 20.7641 18.7245 26.2546 20.2208 27.3967C21.7172 26.2546 28.4313 20.7641 28.4313 14.3254C28.4313 7.88672 21.7215 2.40049 20.2208 1.25412Z" fill="#AA8453"/>
</svg>
